<svg xmlns="http://www.w3.org/2000/svg" version="1.1" width="600px" height="600px" viewBox="0 0 200 200" style="overflow:hidden!important;"><g id="svga-group-wrapper"><g id="svga-group-backs-single"></g><g id="svga-group-humanwrap-move" transform="matrix(1,0,0,1,0,-4)"><g id="svga-group-humanwrap"><g id="svga-group-hair-back-move" transform="matrix(0.9986295346632303,-0.05233595798588117,0.05233595798588117,0.9986295346632303,-7.97502695413462,5.446017925787402)"><g id="svga-group-hair-back"><path id="SvgjsPath15135" d="m61.9 125.5 1.3 15.8s0 6.9-.2 7.4-.6 6-.6 6l1.7 2.5 3.9-1.7-.5-8.2.2-9.8.5-4.9s.8 9.3.8 9.8.2 10.4.2 10.4l-.2 6.3 2.2 3 2.7-2.4-1.1-12.6.9-11.7.8 3s-.2 9.6-.2 10.1.6 11.7.6 11.7l2.1 2.7 6.8-10.4-2.5-14.7-6-10.7-8-2.8-4.7-.6-.7 1.8z" fill="#2a232b" stroke-width="none" opacity="1"></path><path id="SvgjsPath15136" d="m80.9 102.3-20.5-3.4 1.5 26.6 1.3 15.8s0 6.9-.2 7.4-.6 6-.6 6l1.7 2.5 1.3-.6-1.2-3.4.5-24 3.4 2.4v1.3-.4s.8 9.3.8 9.8.2 10.4.2 10.4l-.2 6.3 2.2 3 1.3-1.1-1.2-4.6-.5-23.3 2.9.5.1 2 .8 2.9s-.2 9.6-.2 10.1.6 11.7.6 11.7l2.1 2.7.4-.7 5-17.4-1.5-42.5zm57.2 23.2-1.3 15.8s0 6.9.2 7.4.6 6 .6 6l-1.7 2.5-3.9-1.7.5-8.2-.2-9.8-.5-4.9s-.8 9.3-.8 9.8-.2 10.4-.2 10.4l.2 6.3-2.2 3-2.7-2.4 1.1-12.6-.9-11.7-.8 3s.2 9.6.2 10.1-.6 11.7-.6 11.7l-2.1 2.7-6.8-10.4 2.5-14.7 6-10.7 8-2.8 4.7-.6.7 1.8z" fill="#1b141c" stroke-width="none" opacity="1"></path><path id="SvgjsPath15137" d="m116.1 102.3 21.6-8 .3 31.3-1.3 15.8s0 6.9.2 7.4.6 6 .6 6l-1.7 2.5-1.3-.6 1.2-3.4-.5-24-3.4 2.4v1.3-.4s-.8 9.3-.8 9.8-.2 10.4-.2 10.4l.2 6.3-2.2 3-1.3-1.1 1.2-4.6.5-23.3-2.9.5-.1 2-.8 2.9s.2 9.6.2 10.1-.6 11.7-.6 11.7l-2.1 2.7-.4-.7-5-17.4-1.4-42.6z" fill="#2a232b" stroke-width="none" opacity="1"></path></g></g><g id="svga-group-humanbody-back"><path id="SvgjsPath15043" d="m170 180.3-27.3-6.9-18-9.9-1.5-28.2H76.8l-1.5 28.2-18 9.9-27.3 6.9-9.1 19.7-3 20h164.2l-3-20z" fill="#8c5537" stroke-width="none" opacity="1"></path><path id="SvgjsPath15044" d="m76.8 135.3-1.5 28.2-18 9.9-27.3 6.9-9.1 19.7-3 20h14.6v-20l2.7-17.7 23.8-6.4 24.7-8.3 3.5-32.3z" fill="#6d3415" stroke-width="none" opacity="1"></path></g><g id="svga-group-chinshadow-single"><path id="SvgjsPath15039" d="m121.5 149.1 2.2-3.8-.5-10H76.8l-.8 15.9 13.8 9.6h14.8z" fill="#5e2709" stroke-width="none" opacity="1"></path></g><g id="svga-group-humanbody-front"><path id="SvgjsPath15045" d="m92.8 168.3 2 7.9 6.9 4.6s-8.5-3-8.7-3.6c-.2-.6-.2-8.9-.2-8.9z" fill="#6d3415" stroke-width="none" opacity="1"></path></g><g id="svga-group-clothes-single"><path id="SvgjsPath14926" d="m184.7 220-8.1-35.4-4.8-3.5-1.5-2-17.6-6.8-8.6-15.9-3.8-1.6-7.3-9-9.4-3.1.6 11-1.3 10.1-8.9 9.1-8.1 9.8-2.5 5-1.7-3.2-4.5-3.8-11.2-7.8-8.9-9.1-1.3-10.1.6-11-9.4 3.1-7.3 9-3.8 1.6-8.6 15.9-17.6 6.8-1.5 2-4.8 3.5-8.1 35.4z" fill="#087284" stroke-width="none" opacity="1"></path><path id="SvgjsPath14927" d="m134.2 188.8-15 3.8-9.9.2-.1-1.7 1.3-.1-.7-2.3-3.2.3-.1 2.3.8-.1v1.6h-2.1l2.1.2.1 5.9-.7 7.4 1.6 7.5.3 4.8 2.6-1-.3-5.1-2-6.6.9-7.3-.3-5.6 9.7.7 15.8-4.1 16-12.2 2-5.3-3.2 4.1-15.6 12.6zm-32.2 4.3-2.5-.2.2-1.8.6.1 1.2-2.2-3.3-2.3-2 1.9 1.2 2.3h.1v1.9l-1.5-.1-26-6.9-15.8-11 1.9-11L59 160l11 18.7 17.7 7.2-14.8-7.9-8.1-12.4 2.2-19.8-7.2 8.9-3.8 1.7-8.6 15.8-17.7 6.8-1.5 2-4.8 3.5-8.1 35.5h10.2l1.3-14.3 3.3-18.1 2.9 2.6 2.6 13.9 1.2 15.9v-16.2l-2.6-15.3-2.2-4.3 1.4-1.7 16.7-6L69 187.3l26.8 6.2 1.5-.1-.1 3.4 1.4 9.9s-3 9.8-2.8 9.9c.3.2 1.7 2.8 1.8 2.6.1-.3 3.5-12.5 3.5-12.5l-1.9-10.4.3-3.1 2.5-.1zm-26.2-39.4.6-10.8-4 5.1-.7 8.4 5.4 7.5-1.3-10.2zm49.1 11 6.7-6.9-.7-10.8-7.3-4.3.6 11-1.3 10.2-8.9 9.1-8.1 9.8-2.5 5 6.5-8.5 15-14.6zm-18.1 22.4 22.9-5 11.2-13.4 3.2-12.3-3.8-1.7-2.4 13-8.6 13.1-22.5 6.3zm56.5 9.7.8 21.6.5-20.4 4.5-13.1-5.8 11.9z" fill="#006475" stroke-width="none" opacity="1"></path><path id="SvgjsPath14928" d="m137.4 165.7 1.2-10.5-6-6.2 1.4 10.3-10.3 16.1-14 8.7 18.6-4.5 9.1-13.9zm13.6 6.2-6.2-10.1c.2.6-2.1 9.5-2.1 9.5l-10.3 12.4-15.5 7.2 16.7-3.1 15.7-12.6 1.7-3.3zm24.8 14-3.7-1.9-2.3 5.6 3.9 9.3 3.9 19.2 4.1.2-5.9-32.4zm-7.7-6.5-14.4-4.8-2.5 5-8.3 5.6 19.4.6 4.5 1.2 3.7-5.6-2.4-2zM85 175.6l-10.1-10.3-3.7-7.4-1.4.6 3.1 11.6 11.6 9.1 14.4 5.6 3.1 3.9-3.3-5.6-13.7-7.5zm43.1-12.5-16.7 16.1-6.6 8.5 13.4-11.6 9.9-13z" fill="#188193" stroke-width="none" opacity="1"></path></g><g id="svga-group-head" transform="matrix(0.9986295346632303,-0.05233595798588117,0.05233595798588117,0.9986295346632303,-7.97502695413462,5.446017925787402)"><g id="svga-group-ears-left-move" transform="matrix(1,0,0,1,0,0)"><g id="svga-group-ears-left"><path id="SvgjsPath14941" d="M60.9 93s-5.5-3-7.7-3.9c0 0-3.9 5.4-5.1 7.2 0 0 3.1 14.7 3.9 17.3l5 6.5 5.4-1.7 4.2-14.2L60.9 93z" fill="#8c5537" stroke-width="none" opacity="1"></path><path id="SvgjsPath14942" d="M58.8 104.7c-.2-.4-6-10-6-10l-2.3 7.9 2.6-2.4 1.6 2.9s-.3 5-.2 5.5c0 .5 2.4 4.3 2.4 4.3l1.9-8.2z" fill="#6d3415" stroke-width="none" opacity="1"></path><path id="SvgjsPath14943" d="m58.4 98-5.2-8.9c2.2.9 7.7 1.8 7.7 1.8l5.7 13.3-4.2 14.2-5.4 1.7 3.6-3.4L58.4 98z" fill="#7d4425" stroke-width="none" opacity="1"></path></g></g><g id="svga-group-ears-right-move" transform="matrix(1,0,0,1,0,0)"><g id="svga-group-ears-right"><path id="SvgjsPath14944" d="M139.1 93s5.5-3 7.7-3.9c0 0 3.9 5.4 5.1 7.2 0 0-3.1 14.7-3.9 17.3l-5 6.5-5.4-1.7-4.2-14.2 5.7-11.2z" fill="#8c5537" stroke-width="none" opacity="1"></path><path id="SvgjsPath14945" d="M141.2 104.7c.2-.4 6-10 6-10l2.3 7.9-2.6-2.4-1.6 2.9s.3 5 .2 5.5c0 .5-2.4 4.3-2.4 4.3l-1.9-8.2z" fill="#6d3415" stroke-width="none" opacity="1"></path><path id="SvgjsPath14946" d="m141.6 98 5.2-8.9c-2.2.9-7.7 1.8-7.7 1.8l-5.7 13.3 4.2 14.2 5.4 1.7-3.6-3.4 2.2-18.7z" fill="#7d4425" stroke-width="none" opacity="1"></path></g></g><g id="svga-group-faceshape-wrap"><g id="svga-group-faceshape-single"><path id="SvgjsPath15025" d="M138.1 60c-6.9-11.6-19.7-19.5-19.7-19.5-7.2-1.5-18.4-2.3-18.4-2.3s-11.1.8-18.4 2.3c0 0-12.8 7.9-19.7 19.5 0 0-5.1 14.5-5.3 24.8l4.9 33.9 14.2 24.8 16.9 11.7h14.9l16.9-11.7 14.2-24.8 4.9-33.9c-.3-10.3-5.4-24.8-5.4-24.8z" fill="#8c5537" stroke-width="none" opacity="1"></path><path id="SvgjsPath15026" d="m92.7 152.7-14.6-12.3s-11.4-20.9-11.8-21.7c-.4-.9-5-34.3-5-34.3.2-4.8 4.5-21.5 5-22.2 2.1-3.2 16.5-18 16.5-18l17.1-4.1 18.5.4c-7.2-1.5-18.4-2.3-18.4-2.3s-11.1.8-18.4 2.3c0 0-12.8 7.9-19.7 19.5 0 0-5.1 14.5-5.3 24.8l4.9 33.9 14.2 24.8 16.9 11.7h14.9l16.9-11.7-18 10.4-13.7-1.2z" fill="#6d3415" stroke-width="none" opacity="1"></path></g></g><g id="svga-group-mouth-single-move" transform="matrix(1,0,0,1,0,0)"><g id="svga-group-mouth-single"><path id="SvgjsPath15110" d="m91.05 134.5 3.1 2.2 5.6-.2 6.6.6 2.7-2-2.9 1-6.5-.5-5.5.2z" fill="#6d3415" stroke-width="none" opacity="1" transform="translate(0 2)"></path><path id="SvgjsPath15111" d="m89.17 128.58-1.77 2.59 7.88-2.14 2.49 1.51 3.83.27 2.37-1.45 9.7 2.06-1.77-1.92-8.85-5.39-3.26.99-2.89-1.13z" fill="#783e35" stroke-width="none" opacity="1" transform="translate(0 2)"></path><path id="SvgjsPath15112" d="m85.3 129.9 2.3 1.9 7.5-2.4 2.8 1.6 3.7.1 2.6-1.5 9.5 2.3 1.87-1.35-2.07.45-9.6-2.7-2.5 1.9-3.5-.1-2.7-2-7.8 2.7z" fill="#692d24" stroke-width="none" opacity="1" transform="translate(0 2)"></path></g></g><g id="svga-group-eyes-left-move" transform="matrix(1,0,0,1,0,0)"><g id="svga-group-eyes-left"><g id="svga-group-eyesback-left"><path id="SvgjsPath14981" d="M91.2 95.7 86 91.1l-9 .1-7 3.8s5.8 4.3 7.2 4.9l8.8-.4 5.2-3.8z" fill="#ffffff" stroke-width="none" opacity="1"></path></g><g id="svga-group-eyesiriswrapper-left" transform="matrix(1,0,0,1,0,0)"><g id="svga-group-eyesiriscontrol-left" transform="matrix(1,0,0,1,0,0)"><g id="svga-group-eyesiris-left"><path id="SvgjsPath15060" d="m82.2 100.2-5.5-2-1-5.8 4.5-3.8 5.5 2.1 1 5.7z" fill="#4e60a3" stroke-width="none" opacity="1"></path><path id="SvgjsPath15061" d="m78.2 95.4.6-3.1 3-1 2.4 2.1-.7 3.1-3 1z" fill="#000000" stroke-width="none" opacity="1"></path><path id="SvgjsPath15062" d="m78 91.7 2.2 2.1.6-.4-1.2-2.7z" fill="#ffffff" stroke-width="none" opacity="1"></path><path id="SvgjsPath15063" d="m82.1 96.4.5 1 .8-.4-.4-1z" fill="#ffffff" stroke-width="none" opacity="1"></path></g></g></g><g id="svga-group-eyesfront-left"><path id="SvgjsPath14989" d="M67.1 89.3v11.9l7.9 8.4h11.2l7.9-8.4V89.3l-7.9-8.4H75l-7.9 8.4zm3 5.7 7-3.8 9-.1 5.1 4.6-5.2 3.9-8.8.4c-1.3-.8-7.1-5-7.1-5z" fill="#8c5537" stroke-width="none" opacity="1"></path><path id="SvgjsPath14990" d="m91.7 96.1-1.2-.6-4.7-4.1H77l-7.2 4-1 .2 7.9-5 9.6-.1z" fill="#000000" stroke-width="none" opacity="1"></path><path id="SvgjsPath14991" d="m90.8 94-4-4.1-9.8-.1-8.1 3.6 8.1-3.1h9.7z" fill="#7d4425" stroke-width="none" opacity="1"></path></g></g></g><g id="svga-group-eyes-right-move" transform="matrix(1,0,0,1,0,0)"><g id="svga-group-eyes-right"><g id="svga-group-eyesback-right"><path id="SvgjsPath14982" d="m108.8 95.7 5.1-4.6 9 .1 7 3.8s-5.8 4.3-7.2 4.9l-8.8-.4-5.1-3.8z" fill="#ffffff" stroke-width="none" opacity="1"></path></g><g id="svga-group-eyesiriswrapper-right" transform="matrix(1,0,0,1,0,0)"><g id="svga-group-eyesiriscontrol-right" transform="matrix(1,0,0,1,0,0)"><g id="svga-group-eyesiris-right"><path id="SvgjsPath15064" d="m119.8 100.2-5.5-2-1-5.8 4.5-3.8 5.5 2.1 1 5.7z" fill="#4e60a3" stroke-width="none" opacity="1"></path><path id="SvgjsPath15065" d="m115.8 95.4.7-3.1 3-1 2.3 2.1-.6 3.1-3 1z" fill="#000000" stroke-width="none" opacity="1"></path><path id="SvgjsPath15066" d="m115.7 91.7 2.2 2.1.6-.4-1.2-2.7z" fill="#ffffff" stroke-width="none" opacity="1"></path><path id="SvgjsPath15067" d="m119.7 96.4.6 1 .8-.4-.4-1z" fill="#ffffff" stroke-width="none" opacity="1"></path></g></g></g><g id="svga-group-eyesfront-right"><path id="SvgjsPath14992" d="M125 80.8h-11.2l-7.9 8.4v11.9l7.9 8.4H125l7.9-8.4V89.3l-7.9-8.5zm-2.3 19.1-8.8-.4-5.1-3.8 5.1-4.6 9 .1 7 3.8s-5.8 4.2-7.2 4.9z" fill="#8c5537" stroke-width="none" opacity="1"></path><path id="SvgjsPath14995" d="m108.3 96.1 1.2-.6 4.7-4.1h8.8l7.2 4 1 .2-7.9-5-9.6-.1z" fill="#000000" stroke-width="none" opacity="1"></path><path id="SvgjsPath14996" d="m109.2 94 4-4.1 9.8-.1 8.1 3.6-8.1-3.1h-9.7z" fill="#7d4425" stroke-width="none" opacity="1"></path></g></g></g><g id="svga-group-facehighlight-single"></g><g id="svga-group-eyebrows-left-move" transform="matrix(1,0,0,1,0,0)"><g id="svga-group-eyebrows-left-rotate" transform="matrix(1,1.7453292519943295e-9,-1.7453292519943295e-9,1,1.4451326535436237e-7,-1.3849188462700113e-7)"><g id="svga-group-eyebrows-left"><path id="SvgjsPath14904" d="M74.2 77.6 71 79l-5 9 8.5-4.6 17.3 3.7.9-6z" fill="#2a232b" stroke-width="none" opacity="1"></path><path id="SvgjsPath14905" d="m87.9 84-1.2-4-1.7-.4 2.9 4.4zM73 78.2l5.6 4.6-4.4-5.2-1.2.6zm6.9.5 3.8 5-1.9-4.6-1.9-.4zm-11.7 5.4 2.7-1.5-2.1.5-.6 1zm14.7-4.8 1.7 1.9-.5-1.7-1.2-.2zm-12.4.7 3.8.8L71 79l-.5 1zm16.6.1 3.5 5.2-1.4-4.7-2.1-.5z" fill="#3a353a" stroke-width="none" opacity="1"></path></g></g></g><g id="svga-group-eyebrows-right-move" transform="matrix(1,0,0,1,0,0)"><g id="svga-group-eyebrows-right-rotate" transform="matrix(1,1.7453292519943295e-9,-1.7453292519943295e-9,1,1.4451326535436237e-7,-2.1057397248114285e-7)"><g id="svga-group-eyebrows-right"><path id="SvgjsPath14906" d="m107.3 81.1.9 6 17.3-3.7L134 88l-5-9-3.2-1.4z" fill="#2a232b" stroke-width="none" opacity="1"></path><path id="SvgjsPath14907" d="m115 79.6-1.7.3-1.2 4 2.9-4.3zm10.8-2-4.4 5.2 5.6-4.6-1.2-.6zm-7.6 1.5-1.9 4.6 3.8-5-1.9.4zm12.9 4-2.1-.5 2.7 1.5-.6-1zm-15.2-3.6-.5 1.7 1.7-1.9-1.2.2zM129 79l-3.2 1.8 3.8-.8-.6-1zm-18.2 1.5-1.4 4.7 3.5-5.2-2.1.5z" fill="#3a353a" stroke-width="none" opacity="1"></path></g></g></g><g id="svga-group-beardwrap"><g id="svga-group-beard-single-move" transform="matrix(1,0,0,1,0,0)"><g id="svga-group-beard-single"></g></g></g><g id="svga-group-mustache-single-move" transform="matrix(1,0,0,1,0,0)"><g id="svga-group-mustache-single"></g></g><g id="svga-group-nose-single-move" transform="matrix(1,0,0,1,0,0)"><g id="svga-group-nose-single"><path id="SvgjsPath15097" d="m104.02 101.62 6.37 11.09-2.65 3.58-2.86-2.01-1.86 3.72h-6.3l-1.79-3.72-2.93 1.86-2.58-3.65 6.73-11.37 3.86-1.65z" fill="#8c5537" stroke-width="none" opacity="1" transform="translate(0 1)"></path><path id="SvgjsPath15098" d="m104.31 101.38-1.02-.41 6.61 11.51-2.05 2.93-1.77-1.21.28-1.31-1.4.6-2.05 4.04-2.7.1-3.2-.1-2.05-4.04-1.4-.6.28 1.31-1.77 1.21-2.04-2.93 6.61-11.51.42-13.8-1.45 14.21-6.7 11.3 3.26 4.24 2.79-2.01 1.58 3.53h6.84l1.58-3.53 2.8 2.01 3.26-4.24z" fill="#6d3415" stroke-width="none" opacity="1" transform="translate(0 1)"></path><path id="SvgjsPath15099" d="m96.51 113.01 1.67.79 3.93.1 1.96-.89-.74-3.01-1.27-3.98-2.6 5.23z" fill="#945e41" stroke-width="none" opacity="1" transform="translate(0 1)"></path></g></g><g id="svga-group-hair-front"><path id="SvgjsPath15133" d="m143.8 81.9-.1-9.4-1.8-.9-1-10.5-1.8-.2-2.6-7.7-1.9-.4-3.7-6.7-2.6.2-4.1-4.8-2.6-.2-4.9-3.9-2.8.7-5.5-2.4-3.7 1.4-4.7-1.4-4.7 1.4-3.7-1.4-5.5 2.4-2.8-.7-4.9 3.9-2.6.2-4.1 4.8-2.5-.2-3.8 6.7-1.9.4-2.7 7.7-1.7.2-1 10.5-1.8.9-.1 9.4-1.4 1.3 4.1 12.2 3-3.7-1.6-8 3.5-1.8-.7-8.7 2.6-1.1 1-6.7 4.4-1 1.3-5.7 5.1-.8 1-4.7 4.6.2 3-3.4 4.8 2.7 4.9-2.5 4 2.3v.2l.2-.1.2.1v-.2l4-2.3 4.9 2.5 4.8-2.7 3 3.4 4.6-.2 1 4.7 5.1.8 1.3 5.7 4.5 1 .9 6.7 2.6 1.1-.7 8.7 3.5 1.8-1.6 8 3 3.7 4.1-12.2z" fill="#2a232b" stroke-width="none" opacity="1"></path><path id="SvgjsPath15134" d="M95.4 38.1c-.3 1.9-.3 3.8-.3 5.8.1 1.9.3 3.8.7 5.7.3-1.9.3-3.8.3-5.8-.1-1.9-.2-3.8-.7-5.7zm-10 6.4c0 1.7.1 3.4.5 5.1.4-1.7.5-3.4.5-5.1 0-1.7-.1-3.4-.5-5.1-.4 1.7-.5 3.4-.5 5.1zm-6.7-1.7c-.5 1.4-.7 2.9-.9 4.3 0 .8.1 1.5.2 2.3.1.8.2 1.5.4 2.3.2-.8.3-1.6.3-2.3.1-.8.1-1.5.1-2.3.1-1.4.1-2.9-.1-4.3zm-6.4 7.4c0-.7-.1-1.4-.2-2.2-.2.7-.4 1.4-.5 2.1l-.3 2.1c.1.9.2 1.9.3 2.8.2.9.3 1.8.7 2.8.2-1 .2-1.9.2-2.8 0-.9-.1-1.8-.2-2.8v-2zm-6.4 4.1c-.5 1.7-.7 3.3-.8 5 .3 1.7.6 3.3 1.2 5 .1-1.7 0-3.4-.2-5 .1-1.6.1-3.3-.2-5zm-4 10.9c-.2-.8-.4-1.6-.7-2.4-.1.8-.1 1.7-.1 2.5s.1 1.6.2 2.4c.3 1.6.7 3.2 1.4 4.8.1-1.7-.1-3.3-.4-4.9-.1-.8-.2-1.7-.4-2.4zm-3.4 8.9c-.2 1.5-.1 3 .1 4.4.2 1.5.5 2.9 1.1 4.3.2-1.5.1-3-.1-4.4-.3-1.4-.6-2.9-1.1-4.3zm45.4-30.3c-.1 1.9-.1 3.8.3 5.8.5-1.9.6-3.8.7-5.7.1-1.9.1-3.8-.3-5.8-.5 1.9-.6 3.8-.7 5.7zm9.7.7c0 1.7.1 3.4.5 5.1.4-1.7.5-3.4.5-5.1 0-1.7-.1-3.4-.5-5.1-.4 1.7-.5 3.4-.5 5.1zm7.7-1.7c-.3 1.5-.2 2.9-.1 4.4 0 .8 0 1.5.1 2.3.1.8.2 1.6.3 2.3.2-.8.3-1.5.4-2.3.1-.8.1-1.5.2-2.3-.1-1.6-.3-3-.9-4.4zm7.1 7.3c-.1-.7-.3-1.4-.5-2.1-.1.7-.2 1.5-.2 2.2 0 .7 0 1.4.1 2.1-.1.9-.1 1.8-.2 2.8 0 .9 0 1.9.2 2.8.3-.9.5-1.8.7-2.8.1-.9.2-1.8.3-2.8-.1-.8-.2-1.5-.4-2.2zm5.7 4.2c-.3 1.7-.3 3.3-.2 5-.2 1.7-.4 3.3-.2 5 .6-1.6 1-3.3 1.2-5-.1-1.7-.3-3.3-.8-5zm4 10.9c-.2.8-.3 1.6-.4 2.4-.3 1.6-.5 3.2-.4 4.9.7-1.5 1.1-3.1 1.4-4.8.1-.8.2-1.6.2-2.4 0-.8 0-1.7-.1-2.5-.4.8-.6 1.6-.7 2.4zm3.5 8.9c-.6 1.4-.9 2.8-1.1 4.3-.2 1.5-.3 2.9-.1 4.4.6-1.4.9-2.8 1.1-4.3.1-1.4.3-2.8.1-4.4z" fill="#1b141c" stroke-width="none" opacity="1"></path></g><g id="svga-group-glasses-single-move" transform="matrix(1,0,0,1,0,0)"><g id="svga-group-glasses-single"></g></g></g></g></g><rect id="svga-credit-rect" width="200" height="15" x="0" y="185" fill="#ecf0f1" opacity="0.5" style="display: none;"></rect><text id="svga-credit-text" font-family="Avenir Next, Roboto, Helvetica, Arial, sans-serif" font-size="10px" text-anchor="start" font-weight="400" size="10px" anchor="start" weight="400" fill="#333333" x="33.40447998046875" y="182.60824704170227" style="display: none;"><tspan id="SvgjsTspan14898" dy="13" x="33.40447998046875">Created on AvatarMaker.com</tspan></text></g><defs id="SvgjsDefs14845"></defs></svg>